<?xml version="1.0" encoding="utf-8"?>
<!-- Generator: Adobe Illustrator 23.0.0, SVG Export Plug-In . SVG Version: 6.00 Build 0)  -->
<svg version="1.1" id="图层_1" xmlns="http://www.w3.org/2000/svg" xmlns:xlink="http://www.w3.org/1999/xlink" x="0px" y="0px"
	 viewBox="0 0 24 24" style="enable-background:new 0 0 24 24;" xml:space="preserve">
<style type="text/css">
	.st0{fill:none;}
	.st1{fill:#FFFFFF;}
</style>
<g>
	<rect class="st0" width="24" height="24"/>
</g>
<g>
	<g>
		<polygon class="st1" points="16.5,15.3 15,15.3 15,14.5 9,14.5 9,15.3 7.5,15.3 7.5,14.5 4.5,14.5 4.5,18.3 19.5,18.3 19.5,14.5 
			16.5,14.5 		"/>
		<path class="st1" d="M18,9.3h-2.3V7.8c0-0.8-0.7-1.5-1.5-1.5H9.8c-0.8,0-1.5,0.7-1.5,1.5v1.5H6c-0.8,0-1.5,0.7-1.5,1.5v3h3v-1.5H9
			v1.5h6v-1.5h1.5v1.5h3v-3C19.5,9.9,18.8,9.3,18,9.3z M14.3,9.3H9.8V7.8h4.5V9.3z"/>
	</g>
</g>
</svg>
